<svg width="203" height="51" viewBox="0 0 203 51" fill="none" xmlns="http://www.w3.org/2000/svg">
<path d="M34.12 40V23.08L28 35.4H24.4L18.28 23.08V40H11.72V11.6H18.84L26.2 26.44L33.6 11.6H40.68V40H34.12ZM57.3025 40.4C55.5158 40.4 53.9292 40.12 52.5425 39.56C51.1558 38.9733 49.9692 38.1867 48.9825 37.2C48.0225 36.2133 47.2892 35.08 46.7825 33.8C46.2758 32.4933 46.0225 31.1333 46.0225 29.72C46.0225 27.6933 46.4625 25.8533 47.3425 24.2C48.2492 22.52 49.5425 21.1733 51.2225 20.16C52.9025 19.12 54.9292 18.6 57.3025 18.6C59.6758 18.6 61.6892 19.1067 63.3425 20.12C65.0225 21.1333 66.3025 22.4667 67.1825 24.12C68.0625 25.7467 68.5025 27.52 68.5025 29.44C68.5025 29.8133 68.4758 30.1867 68.4225 30.56C68.3958 30.9067 68.3692 31.2133 68.3425 31.48H52.8225C52.9025 32.4133 53.1558 33.2 53.5825 33.84C54.0358 34.48 54.6092 34.9733 55.3025 35.32C55.9958 35.64 56.7292 35.8 57.5025 35.8C58.4625 35.8 59.3558 35.5733 60.1825 35.12C61.0358 34.6667 61.6225 34.0533 61.9425 33.28L67.3825 34.8C66.8492 35.8933 66.0892 36.8667 65.1025 37.72C64.1425 38.5467 62.9958 39.2 61.6625 39.68C60.3558 40.16 58.9025 40.4 57.3025 40.4ZM52.6625 27.56H61.7825C61.6758 26.68 61.4225 25.92 61.0225 25.28C60.6225 24.6133 60.0892 24.1067 59.4225 23.76C58.7558 23.3867 58.0225 23.2 57.2225 23.2C56.3958 23.2 55.6492 23.3867 54.9825 23.76C54.3425 24.1067 53.8225 24.6133 53.4225 25.28C53.0225 25.92 52.7692 26.68 52.6625 27.56ZM86.7688 38.88C86.1821 39.12 85.5288 39.36 84.8088 39.6C84.1154 39.84 83.3821 40.0267 82.6088 40.16C81.8354 40.32 81.0754 40.4 80.3288 40.4C79.2621 40.4 78.2754 40.2267 77.3688 39.88C76.4888 39.5067 75.7821 38.9067 75.2488 38.08C74.7421 37.2533 74.4888 36.16 74.4888 34.8V23.84H71.8088V19H74.4888V12.32H80.8888V19H85.1688V23.84H80.8888V32.6C80.8888 33.2933 81.0621 33.8 81.4088 34.12C81.7554 34.4133 82.1954 34.56 82.7287 34.56C83.1821 34.56 83.6621 34.48 84.1688 34.32C84.7021 34.16 85.1554 33.9867 85.5288 33.8L86.7688 38.88ZM89.9425 33.72C89.9425 32.3333 90.3292 31.12 91.1025 30.08C91.8758 29.04 92.9425 28.2267 94.3025 27.64C95.6625 27.0267 97.2225 26.72 98.9825 26.72C99.8358 26.72 100.676 26.8 101.503 26.96C102.329 27.0933 103.049 27.2933 103.663 27.56V26.64C103.663 25.4933 103.316 24.6133 102.623 24C101.929 23.3867 100.876 23.08 99.4625 23.08C98.2892 23.08 97.1825 23.28 96.1425 23.68C95.1292 24.08 94.0492 24.6533 92.9025 25.4L90.9825 21.32C92.3692 20.4133 93.8092 19.7333 95.3025 19.28C96.8225 18.8267 98.4225 18.6 100.103 18.6C103.249 18.6 105.689 19.36 107.423 20.88C109.183 22.3733 110.063 24.5467 110.063 27.4V32.88C110.063 33.52 110.156 33.9733 110.343 34.24C110.556 34.48 110.916 34.6267 111.423 34.68V40C110.889 40.1067 110.383 40.1867 109.903 40.24C109.449 40.2933 109.049 40.32 108.703 40.32C107.503 40.32 106.583 40.08 105.943 39.6C105.329 39.12 104.943 38.4667 104.783 37.64L104.663 36.72C103.729 37.92 102.609 38.84 101.303 39.48C100.023 40.0933 98.6758 40.4 97.2625 40.4C95.8758 40.4 94.6225 40.1067 93.5025 39.52C92.4092 38.9333 91.5425 38.1333 90.9025 37.12C90.2625 36.1067 89.9425 34.9733 89.9425 33.72ZM102.663 34.52C102.956 34.28 103.196 34.0133 103.383 33.72C103.569 33.4267 103.663 33.1467 103.663 32.88V31C103.129 30.7867 102.529 30.6267 101.863 30.52C101.223 30.3867 100.623 30.32 100.063 30.32C98.8892 30.32 97.9158 30.5867 97.1425 31.12C96.3692 31.6267 95.9825 32.3067 95.9825 33.16C95.9825 33.64 96.1158 34.08 96.3825 34.48C96.6492 34.88 97.0092 35.2 97.4625 35.44C97.9425 35.68 98.5025 35.8 99.1425 35.8C99.7825 35.8 100.423 35.68 101.063 35.44C101.703 35.2 102.236 34.8933 102.663 34.52ZM117.22 40V11.6H129.34C130.7 11.6 131.94 11.88 133.06 12.44C134.207 12.9733 135.193 13.7067 136.02 14.64C136.847 15.5467 137.487 16.5733 137.94 17.72C138.393 18.8667 138.62 20.04 138.62 21.24C138.62 22.8667 138.233 24.4133 137.46 25.88C136.713 27.3467 135.66 28.5467 134.3 29.48C132.967 30.3867 131.38 30.84 129.54 30.84H123.78V40H117.22ZM123.78 25.12H129.14C129.647 25.12 130.113 24.9733 130.54 24.68C130.967 24.3867 131.313 23.9467 131.58 23.36C131.847 22.7733 131.98 22.0533 131.98 21.2C131.98 20.32 131.82 19.6 131.5 19.04C131.207 18.4533 130.82 18.0267 130.34 17.76C129.887 17.4933 129.407 17.36 128.9 17.36H123.78V25.12ZM153.192 40.4C151.406 40.4 149.806 40.1067 148.392 39.52C147.006 38.9333 145.832 38.1333 144.872 37.12C143.912 36.1067 143.179 34.9467 142.672 33.64C142.192 32.3333 141.952 30.96 141.952 29.52C141.952 28.0533 142.192 26.6667 142.672 25.36C143.179 24.0533 143.912 22.8933 144.872 21.88C145.832 20.8667 147.006 20.0667 148.392 19.48C149.806 18.8933 151.406 18.6 153.192 18.6C154.979 18.6 156.566 18.8933 157.952 19.48C159.339 20.0667 160.512 20.8667 161.472 21.88C162.432 22.8933 163.166 24.0533 163.672 25.36C164.179 26.6667 164.432 28.0533 164.432 29.52C164.432 30.96 164.179 32.3333 163.672 33.64C163.166 34.9467 162.432 36.1067 161.472 37.12C160.512 38.1333 159.339 38.9333 157.952 39.52C156.566 40.1067 154.979 40.4 153.192 40.4ZM148.512 29.52C148.512 30.6133 148.712 31.5733 149.112 32.4C149.539 33.2267 150.099 33.8667 150.792 34.32C151.486 34.7733 152.286 35 153.192 35C154.072 35 154.859 34.7733 155.552 34.32C156.272 33.84 156.832 33.1867 157.232 32.36C157.632 31.5333 157.832 30.5867 157.832 29.52C157.832 28.4267 157.632 27.4667 157.232 26.64C156.832 25.8133 156.272 25.1733 155.552 24.72C154.859 24.2667 154.072 24.04 153.192 24.04C152.286 24.04 151.486 24.2667 150.792 24.72C150.099 25.1733 149.539 25.8133 149.112 26.64C148.712 27.4667 148.512 28.4267 148.512 29.52ZM168.406 29.48C168.406 27.4267 168.806 25.5867 169.606 23.96C170.406 22.3067 171.5 21 172.886 20.04C174.273 19.08 175.873 18.6 177.686 18.6C179.153 18.6 180.486 18.96 181.686 19.68C182.886 20.3733 183.793 21.2933 184.406 22.44V10.8H190.806V32.88C190.806 33.52 190.913 33.9733 191.126 34.24C191.34 34.48 191.686 34.6267 192.166 34.68V40C191.046 40.2133 190.14 40.32 189.446 40.32C188.353 40.32 187.46 40.08 186.766 39.6C186.1 39.12 185.686 38.4533 185.526 37.6L185.406 36.52C184.66 37.8267 183.646 38.8 182.366 39.44C181.086 40.08 179.74 40.4 178.326 40.4C176.886 40.4 175.553 40.1333 174.326 39.6C173.126 39.04 172.073 38.2667 171.166 37.28C170.286 36.2933 169.606 35.1333 169.126 33.8C168.646 32.4667 168.406 31.0267 168.406 29.48ZM184.446 32.08V27.68C184.18 26.96 183.793 26.3333 183.286 25.8C182.806 25.2667 182.246 24.84 181.606 24.52C180.993 24.2 180.366 24.04 179.726 24.04C179.033 24.04 178.393 24.1867 177.806 24.48C177.246 24.7733 176.753 25.1867 176.326 25.72C175.9 26.2267 175.566 26.8133 175.326 27.48C175.113 28.1467 175.006 28.8533 175.006 29.6C175.006 30.3733 175.126 31.0933 175.366 31.76C175.633 32.4 175.993 32.9733 176.446 33.48C176.9 33.96 177.433 34.3333 178.046 34.6C178.66 34.8667 179.326 35 180.046 35C180.5 35 180.94 34.9333 181.366 34.8C181.793 34.64 182.193 34.44 182.566 34.2C182.966 33.96 183.326 33.6533 183.646 33.28C183.966 32.9067 184.233 32.5067 184.446 32.08Z" fill="white"/>
<rect x="2" y="2" width="199" height="47" rx="10" stroke="white" stroke-width="3"/>
</svg>
